REM DIRINDEX 1\6,1\2\7,1\2\8,1\2\9,1\3\10,1\3\11,1\4\12,1\4\13,1\4\14,1\5\15,1\5\16,1\5\17
REM DIRNAME cjc041,folder01,folder02,folder03,folder04,folder05,folder06,folder07,folder08,folder09,folder10,folder11,folder12,folder13,folder14,folder15,folder16
TITLE ""
FILE "3Q_t2_0616-0631.mp3" MP3
  TRACK 01 AUDIO
    TITLE "7:cjc041_5265"
    INDEX 01 00:00:00
  TRACK 02 AUDIO
    TITLE "0:"
    INDEX 01 00:01:01
  TRACK 03 AUDIO
    TITLE "8:cjc041_5266"
    INDEX 01 00:01:50
  TRACK 04 AUDIO
    TITLE "0:"
    INDEX 01 00:02:73
  TRACK 05 AUDIO
    TITLE "9:cjc041_5267"
    INDEX 01 00:03:53
  TRACK 06 AUDIO
    TITLE "0:"
    INDEX 01 00:04:62
  TRACK 07 AUDIO
    TITLE "7:cjc041_5268"
    INDEX 01 00:06:41
  TRACK 08 AUDIO
    TITLE "0:"
    INDEX 01 00:07:49
  TRACK 09 AUDIO
    TITLE "8:cjc041_5269"
    INDEX 01 00:08:26
  TRACK 10 AUDIO
    TITLE "0:"
    INDEX 01 00:10:49
  TRACK 11 AUDIO
    TITLE "9:cjc041_5270"
    INDEX 01 00:11:23
  TRACK 12 AUDIO
    TITLE "0:"
    INDEX 01 00:12:34
  TRACK 13 AUDIO
    TITLE "7:cjc041_5271"
    INDEX 01 00:14:11
  TRACK 14 AUDIO
    TITLE "0:"
    INDEX 01 00:15:17
  TRACK 15 AUDIO
    TITLE "8:cjc041_5272"
    INDEX 01 00:15:72
  TRACK 16 AUDIO
    TITLE "0:"
    INDEX 01 00:18:48
  TRACK 17 AUDIO
    TITLE "9:cjc041_5273"
    INDEX 01 00:19:24
  TRACK 18 AUDIO
    TITLE "0:"
    INDEX 01 00:20:28
  TRACK 19 AUDIO
    TITLE "7:cjc041_5274"
    INDEX 01 00:22:09
  TRACK 20 AUDIO
    TITLE "0:"
    INDEX 01 00:23:14
  TRACK 21 AUDIO
    TITLE "8:cjc041_5275"
    INDEX 01 00:23:63
  TRACK 22 AUDIO
    TITLE "0:"
    INDEX 01 00:25:25
  TRACK 23 AUDIO
    TITLE "9:cjc041_5276"
    INDEX 01 00:26:01
  TRACK 24 AUDIO
    TITLE "0:"
    INDEX 01 00:27:04
  TRACK 25 AUDIO
    TITLE "7:cjc041_5277"
    INDEX 01 00:28:55
  TRACK 26 AUDIO
    TITLE "0:"
    INDEX 01 00:29:70
  TRACK 27 AUDIO
    TITLE "8:cjc041_5278"
    INDEX 01 00:30:46
  TRACK 28 AUDIO
    TITLE "0:"
    INDEX 01 00:31:67
  TRACK 29 AUDIO
    TITLE "9:cjc041_5279"
    INDEX 01 00:32:43
  TRACK 30 AUDIO
    TITLE "0:"
    INDEX 01 00:33:58
  TRACK 31 AUDIO
    TITLE "7:cjc041_5280"
    INDEX 01 00:35:35
  TRACK 32 AUDIO
    TITLE "0:"
    INDEX 01 00:36:52
  TRACK 33 AUDIO
    TITLE "8:cjc041_5281"
    INDEX 01 00:37:24
  TRACK 34 AUDIO
    TITLE "0:"
    INDEX 01 00:38:65
  TRACK 35 AUDIO
    TITLE "9:cjc041_5282"
    INDEX 01 00:39:43
  TRACK 36 AUDIO
    TITLE "0:"
    INDEX 01 00:40:58
  TRACK 37 AUDIO
    TITLE "7:cjc041_5283"
    INDEX 01 00:42:37
  TRACK 38 AUDIO
    TITLE "0:"
    INDEX 01 00:43:46
  TRACK 39 AUDIO
    TITLE "8:cjc041_5284"
    INDEX 01 00:44:26
  TRACK 40 AUDIO
    TITLE "0:"
    INDEX 01 00:45:43
  TRACK 41 AUDIO
    TITLE "9:cjc041_5285"
    INDEX 01 00:46:23
  TRACK 42 AUDIO
    TITLE "0:"
    INDEX 01 00:47:34
  TRACK 43 AUDIO
    TITLE "7:cjc041_5286"
    INDEX 01 00:49:16
  TRACK 44 AUDIO
    TITLE "0:"
    INDEX 01 00:50:29
  TRACK 45 AUDIO
    TITLE "8:cjc041_5287"
    INDEX 01 00:51:01
  TRACK 46 AUDIO
    TITLE "0:"
    INDEX 01 00:53:35
  TRACK 47 AUDIO
    TITLE "9:cjc041_5288"
    INDEX 01 00:54:09
  TRACK 48 AUDIO
    TITLE "0:"
    INDEX 01 00:55:22
  TRACK 49 AUDIO
    TITLE "7:cjc041_5289"
    INDEX 01 00:57:01
  TRACK 50 AUDIO
    TITLE "0:"
    INDEX 01 00:58:26
  TRACK 51 AUDIO
    TITLE "8:cjc041_5290"
    INDEX 01 00:58:69
  TRACK 52 AUDIO
    TITLE "0:"
    INDEX 01 01:02:34
  TRACK 53 AUDIO
    TITLE "9:cjc041_5291"
    INDEX 01 01:03:10
  TRACK 54 AUDIO
    TITLE "0:"
    INDEX 01 01:04:29
  TRACK 55 AUDIO
    TITLE "7:cjc041_5292"
    INDEX 01 01:06:02
  TRACK 56 AUDIO
    TITLE "0:"
    INDEX 01 01:07:14
  TRACK 57 AUDIO
    TITLE "8:cjc041_5293"
    INDEX 01 01:07:66
  TRACK 58 AUDIO
    TITLE "0:"
    INDEX 01 01:09:46
  TRACK 59 AUDIO
    TITLE "9:cjc041_5294"
    INDEX 01 01:10:22
  TRACK 60 AUDIO
    TITLE "0:"
    INDEX 01 01:11:31
  TRACK 61 AUDIO
    TITLE "7:cjc041_5295"
    INDEX 01 01:13:12
  TRACK 62 AUDIO
    TITLE "0:"
    INDEX 01 01:14:41
  TRACK 63 AUDIO
    TITLE "8:cjc041_5296"
    INDEX 01 01:15:15
  TRACK 64 AUDIO
    TITLE "0:"
    INDEX 01 01:18:53
  TRACK 65 AUDIO
    TITLE "9:cjc041_5297"
    INDEX 01 01:19:25
  TRACK 66 AUDIO
    TITLE "0:"
    INDEX 01 01:20:55
  TRACK 67 AUDIO
    TITLE "7:cjc041_5298"
    INDEX 01 01:22:31
  TRACK 68 AUDIO
    TITLE "0:"
    INDEX 01 01:23:58
  TRACK 69 AUDIO
    TITLE "8:cjc041_5299"
    INDEX 01 01:24:36
  TRACK 70 AUDIO
    TITLE "0:"
    INDEX 01 01:26:01
  TRACK 71 AUDIO
    TITLE "9:cjc041_5300"
    INDEX 01 01:26:56
  TRACK 72 AUDIO
    TITLE "0:"
    INDEX 01 01:28:10
  TRACK 73 AUDIO
    TITLE "7:cjc041_5301"
    INDEX 01 01:29:64
  TRACK 74 AUDIO
    TITLE "0:"
    INDEX 01 01:31:16
  TRACK 75 AUDIO
    TITLE "8:cjc041_5302"
    INDEX 01 01:31:61
  TRACK 76 AUDIO
    TITLE "0:"
    INDEX 01 01:35:22
  TRACK 77 AUDIO
    TITLE "9:cjc041_5303"
    INDEX 01 01:35:67
  TRACK 78 AUDIO
    TITLE "0:"
    INDEX 01 01:37:17
  TRACK 79 AUDIO
    TITLE "7:cjc041_5304"
    INDEX 01 01:38:69
  TRACK 80 AUDIO
    TITLE "0:"
    INDEX 01 01:40:11
  TRACK 81 AUDIO
    TITLE "8:cjc041_5305"
    INDEX 01 01:40:62
  TRACK 82 AUDIO
    TITLE "0:"
    INDEX 01 01:42:37
  TRACK 83 AUDIO
    TITLE "9:cjc041_5306"
    INDEX 01 01:43:13
  TRACK 84 AUDIO
    TITLE "0:"
    INDEX 01 01:44:30
  TRACK 85 AUDIO
    TITLE "7:cjc041_5307"
    INDEX 01 01:46:02
  TRACK 86 AUDIO
    TITLE "0:"
    INDEX 01 01:47:35
  TRACK 87 AUDIO
    TITLE "8:cjc041_5308"
    INDEX 01 01:48:11
  TRACK 88 AUDIO
    TITLE "0:"
    INDEX 01 01:49:73
  TRACK 89 AUDIO
    TITLE "9:cjc041_5309"
    INDEX 01 01:50:54
  TRACK 90 AUDIO
    TITLE "0:"
    INDEX 01 01:52:16
  TRACK 91 AUDIO
    TITLE "7:cjc041_5310"
    INDEX 01 01:53:69
  TRACK 92 AUDIO
    TITLE "0:"
    INDEX 01 01:55:22
  TRACK 93 AUDIO
    TITLE "8:cjc041_5311"
    INDEX 01 01:56:02
  TRACK 94 AUDIO
    TITLE "0:"
    INDEX 01 01:57:53
  TRACK 95 AUDIO
    TITLE "9:cjc041_5312"
    INDEX 01 01:58:29
  TRACK 96 AUDIO
    TITLE "0:"
    INDEX 01 01:59:57
